<?xml version="1.0" encoding="utf-8"?>
<!-- Generator: Adobe Illustrator 19.0.0, SVG Export Plug-In . SVG Version: 6.00 Build 0)  -->
<svg version="1.1" id="Layer_1" xmlns="http://www.w3.org/2000/svg" xmlns:xlink="http://www.w3.org/1999/xlink" x="0px" y="0px"
	 viewBox="50 262.3 711.9 268.7" style="enable-background:new 50 262.3 711.9 268.7;" xml:space="preserve">
<style type="text/css">
	.st0{display:none;fill:#FEFEFE;}
	.st1{fill:#FF3333;}
	.st2{fill:#2E3035;}
	.st3{fill:#2F3237;}
	.st4{fill:#2E3136;}
	.st5{fill:#303338;}
	.st6{display:none;fill:#FAFAFA;}
	.st7{display:none;fill:#F8F8F8;}
	.st8{display:none;fill:#F9F9F9;}
	.st9{display:none;fill:#F9FAFA;}
</style>
<g>
	<path class="st0" d="M99.9,553c0-96.8,0-193.7,0-290.7c204.1,0,408.1,0,612.2,0c0,96.8,0,193.7,0,290.7C508.1,553,304,553,99.9,553
		z M302.2,481.6c2.5,0,5,0,8,0c-1.8-2-3-3.5-4.3-4.9c6.2-8.3,10.8-17.6,13.9-27.4c7.1-22,7-44-1.6-65.9c-8.5-21.4-21.5-39-41.6-50.8
		c-6.9-4-14.2-7.5-21.6-10.3c-12.2-4.7-25.2-5.8-38.2-5.6c0.3-9.5,0.5-18.9,0.8-28.7c-6.9,5.5-13.5,10.6-20,15.9
		c-10.5,8.5-20.9,17.2-31.4,25.7c-1.5,1.2-2.1,2.3-1.4,4.1c-2.1,1.4-4.3,2.7-6.3,4.3c-22.3,17.2-34.5,40.3-39.1,67.7
		c-1.7,9.9-1.1,19.8,0.9,29.8c5.5,27,18.4,49.2,41.2,65.2c12.1,8.5,25.2,14.5,39.7,17.3c28.8,5.5,55.3-0.2,79.7-16.3
		C289,496.2,296.2,489.4,302.2,481.6z M561.7,398.7c0.3-0.1,0.6-0.2,0.9-0.3c0.3,0.6,0.7,1.2,0.9,1.8c3,8.1,6,16.1,9,24.2
		c1.9,5.1,3.7,10.2,5.7,15.3c1.3,3.2,3.4,5.8,7.3,5.9c2.6,0.1,5.3,0.1,7.9,0c3.7-0.1,5.8-2.1,6.3-5.7c0.3-1.8,0.4-3.6,0.4-5.3
		c0-15.9,0-31.7,0-47.6c0-0.9,0-1.9-0.1-2.8c-0.5-3.7-1.4-4.8-5-5.5c-4.5-0.8-9.1-0.3-9,6.4c0,1.5-0.2,3.1-0.2,4.6
		c0,11.1,0,22.2,0,33.3c0,0.9,0,1.7,0,2.6c-0.3,0-0.5,0.1-0.8,0.1c-0.3-0.7-0.7-1.4-0.9-2.1c-1.6-4.3-3.2-8.6-4.8-12.9
		c-3.2-8.6-6.3-17.3-9.5-25.9c-1.7-4.5-4.3-6.3-9.1-6.3c-2,0-4.1,0-6.1,0c-4.2,0-6.3,1.9-6.8,6c-0.1,1.1-0.2,2.2-0.2,3.3
		c0,16.7,0,33.4,0,50.2c0,1.2-0.2,2.5,0.3,3.5c0.6,1.3,1.6,2.8,2.8,3.4c6.2,2.9,11-0.2,11-6.9c0-12.1,0-24.2,0-36.3
		C561.7,400.7,561.7,399.7,561.7,398.7z M525.3,413.9c3.8-1.5,7-3.7,9-7.2c6.4-11.4-0.5-25.5-13.9-27.4c-6.8-1-13.8-0.6-20.7-0.7
		c-5.1-0.1-6.9,1.6-7.6,6.6c-0.2,1.1-0.2,2.2-0.2,3.3c0,15.7,0,31.4,0,47.1c0,1.9,0.2,3.8,0.6,5.6c0.5,2.4,2,3.9,4.4,4.4
		c5.6,1.2,9.2-1.6,9.3-7.3c0.1-5.7,0.1-11.4,0.1-17.1c0-0.8,0-1.6,0-2.6c2.1,0,3.8,0,5.5,0c4.1-0.1,7.8,2.6,7.7,7.6
		c0,3.6,0.3,7.2,0,10.7c-0.8,7.9,7.4,10.9,13,8.9c3.2-1.1,5.3-5,3.4-7.3c-2.1-2.7-2.1-5.5-2-8.4c0.4-6.9-1.9-12.2-8.2-15.4
		C525.8,414.5,525.7,414.2,525.3,413.9z M659.4,412.3c0-4.9,0-9.9,0-14.8c0-3.5,1.9-5.8,4.8-6.2c4-0.6,6.9,1,7.8,4.4
		c0.5,2,0.7,4.2,0.8,6.3c0.1,2.2,1.2,3.8,3.1,4.1c3.1,0.5,6.2,0.7,9.3,0.5c2.3-0.1,4-1.8,4.1-4.2c0.5-7.1-1.9-16.9-10.3-21
		c-8.1-3.9-16.4-4-24.7-0.3c-7.1,3.2-10.9,8.8-11.1,16.4c-0.3,10.1-0.3,20.3,0,30.4c0.2,8.3,5.2,14.4,13.3,16.5
		c3.5,0.9,7.3,1.4,10.8,1.1c12.3-1,20.7-7.2,22.1-20.2c0.4-4.2-1.2-6.5-5.3-6.8c-2.4-0.1-4.9,0.2-7.4,0.4c-2.6,0.3-3.9,1.7-4,4.4
		c0,1.8-0.2,3.6-0.7,5.3c-1,3.9-3.8,6-7.4,5.6c-3.2-0.4-5.4-3.2-5.4-7.3C659.4,422.1,659.4,417.2,659.4,412.3z M468.1,429.4
		c0,3.5-0.1,6.9,0,10.2c0.2,4.1,2.3,5.9,6.1,6c4.9,0.1,6.9-1.3,7.2-5.6c0.7-8.8,0.8-17.5-2.2-26c-0.7-2-1.7-4-2.3-6.1
		c-1.9-6.3-3.7-12.6-5.6-18.8c-2.9-9.8-4.1-10.7-14.1-10.7c-7,0-9.4,1.8-11.4,8.5c-2.2,7.6-4.3,15.3-6.9,22.7
		c-1.9,5.3-4,10.4-4,16.1c0,4.5-0.1,9,0,13.5c0.1,3.2,1.3,5,3.7,5.8c6.4,2,10-0.6,10-7.3c0-2.8,0-5.6,0-8.4
		C455.1,429.4,461.4,429.4,468.1,429.4z M405.6,391.8c4.2,0,8.2,0,12.1,0c1.7,0,3.4-0.1,5.1-0.5c3.4-0.7,5-2.8,5.1-6.1
		c0-3.4-1.5-5.4-4.9-6.2c-1.6-0.4-3.2-0.5-4.8-0.5c-6.4-0.1-12.8,0-19.2,0c-6.3,0-8.5,1.8-8.5,8.1c-0.1,17.1,0,34.1,0,51.2
		c0,0.8,0.1,1.5,0.3,2.3c0.8,3.9,2.8,5.6,6.7,5.6c7.1,0,14.2,0,21.2,0c1.3,0,2.6-0.1,3.8-0.4c3.8-0.8,5.4-2.8,5.4-6.3
		s-1.7-5.4-5.6-6.2c-1.7-0.3-3.4-0.4-5.1-0.4c-3.8-0.1-7.6,0-11.7,0c0-2.5,0-4.7,0-6.8c0-2.3,0-4.5,0-7c1.8,0,3.2,0.1,4.6,0
		c2.5-0.1,5-0.1,7.4-0.5c3.1-0.6,4.7-2.8,4.7-6.1s-1.5-5.4-4.6-6.1c-1.7-0.4-3.5-0.4-5.3-0.5c-2.2-0.1-4.4,0-6.7,0
		C405.6,400.5,405.6,396.3,405.6,391.8z M360.8,431.7c0-1,0-1.9,0-2.7c0-11.8,0-23.5,0-35.3c0-2.8-0.1-5.6-0.4-8.4
		c-0.4-4.3-3.1-6.7-7.3-6.8c-4.6-0.1-6.8,1.8-7.6,6.5c-0.2,1.5-0.3,3.1-0.3,4.6c0,16.1,0,32.2,0,48.4c0,5.3,2,7.5,7.4,7.6
		c6.7,0.1,13.5,0.1,20.2,0c0.9,0,1.9-0.2,2.8-0.4c3.3-0.8,5.2-3,5.2-6.3c0.1-3.4-1.8-5.8-5.2-6.6c-1.6-0.3-3.2-0.4-4.8-0.5
		C367.5,431.7,364.3,431.7,360.8,431.7z M630.3,412.3L630.3,412.3c0-9,0.1-18.1-0.1-27.1c-0.1-4.1-2.9-6.6-6.9-6.8
		c-5-0.2-7.7,1.8-8.4,6.3c-0.3,1.9-0.4,3.9-0.4,5.8c0,14.1,0,28.1,0,42.2c0,2,0.2,4.1,0.4,6.1c0.5,4.7,3,6.8,7.9,6.7
		c4.6,0,7.3-2.3,7.4-7C630.4,429.9,630.3,421.1,630.3,412.3z"/>
	<path class="st1" d="M216.9,316.7c13-0.2,26,0.9,38.2,5.6c7.4,2.9,14.7,6.3,21.6,10.3c20,11.8,33.1,29.4,41.6,50.8
		c8.7,21.9,8.7,43.9,1.6,65.9c-3.1,9.7-7.7,19-13.9,27.3c-0.7-0.7-1.5-1.4-2.2-2.1c-7.2-7.7-14.4-15.4-21.7-23.1
		c-0.7-0.7-1.8-1.4-2.7-1.5c-1.7-0.1-3.4,0.3-5.1,0.5c-9,1-18.1,1.9-27.1,2.9c-7.5,0.8-15,1.6-22.6,2.4c-3.8,0.4-7.5,0.8-11.6,1.2
		c0-1.1,0-1.9,0-2.7c0.1-5,0.3-10,0.5-15.1c0.3-11.2,0.7-22.3,1-33.5c0.4-13.1,0.7-26.2,1.1-39.3c0.3-10.2,0.4-20.4,0.7-30.7
		C216.4,329.3,216.7,323,216.9,316.7z"/>
	<path class="st1" d="M302.2,481.6c-6.1,7.8-13.1,14.6-21.3,20.1c-24.3,16.1-50.8,21.8-79.7,16.3c-14.6-2.8-27.7-8.8-39.7-17.3
		c-22.8-16-35.7-38.2-41.2-65.2c-2-10-2.6-19.9-0.9-29.8c4.6-27.4,16.8-50.5,39.1-67.7c2-1.5,4.2-2.8,6.3-4.3
		c1,7.2,2.1,14.5,3.1,21.7c2.5,17.4,4.9,34.7,7.3,52.1c3,21.4,6.1,42.8,9.2,64.2c0.5,3.2,1,6.5,1.5,9.8c1.4,0,2.4,0,3.4,0
		c36.5,0,73,0,109.5,0C300,481.5,301,481.6,302.2,481.6z"/>
	<path class="st2" d="M302.2,481.6c-1.1,0-2.2-0.1-3.3-0.1c-36.5,0-73,0-109.5,0c-1,0-2,0-3.4,0c-0.5-3.3-1.1-6.6-1.5-9.8
		c-3.1-21.4-6.1-42.8-9.2-64.2c-2.5-17.3-4.9-34.7-7.3-52.1c-1-7.2-2.1-14.5-3.1-21.7c-0.7-1.8-0.1-2.9,1.4-4.1
		c10.5-8.5,20.9-17.2,31.4-25.7c6.5-5.3,13.1-10.4,20-15.9c-0.3,9.7-0.5,19.2-0.8,28.7c-0.2,6.3-0.5,12.6-0.6,18.9
		c-0.3,10.2-0.4,20.4-0.7,30.7c-0.3,13.1-0.7,26.2-1.1,39.3c-0.3,11.2-0.6,22.3-1,33.5c-0.1,5-0.3,10-0.5,15.1c0,0.8,0,1.7,0,2.7
		c4-0.4,7.8-0.8,11.6-1.2c7.5-0.8,15-1.6,22.6-2.4c9-1,18.1-1.9,27.1-2.9c1.7-0.2,3.4-0.6,5.1-0.5c0.9,0.1,2,0.8,2.7,1.5
		c7.3,7.7,14.5,15.4,21.7,23.1c0.7,0.7,1.5,1.4,2.2,2.1c1.3,1.5,2.5,2.9,4.3,4.9C307.3,481.6,304.8,481.6,302.2,481.6z M199.9,319.8
		c-0.4,0.1-0.9,0.2-1.3,0.4c-4.2,2.8-8.5,5.7-12.7,8.6c-0.5,0.3-0.8,1.4-0.7,2.1c0.3,3.3,0.8,6.6,1.3,9.9c0.2,1.7,0.6,3.4,0.9,5.3
		c2.2-0.9,4.1-1.6,6-2.5c0.6-0.3,1.3-0.9,1.4-1.5C196.6,334.7,198.2,327.3,199.9,319.8z M172.2,336.3c0.9,4.7,1.7,9.1,2.6,13.5
		c1.3-0.4,2.4-0.7,3.3-1.2c0.6-0.3,1.5-1,1.5-1.6c0.1-4.8,0.1-9.6,0.1-14.6C177.4,333.6,174.9,334.9,172.2,336.3z M178.4,373.9
		c4.8-1.3,5.1-1.7,4.9-6.1c-0.1-3.7-0.4-7.3-0.6-11.3c-2,1-4,1.9-5.8,3c-0.4,0.2-0.7,1.1-0.6,1.6C177,365.4,177.7,369.7,178.4,373.9
		z"/>
	<path class="st3" d="M561.7,398.7c0,1,0,2,0,3c0,12.1,0,24.2,0,36.3c0,6.7-4.8,9.8-11,6.9c-1.2-0.6-2.1-2.1-2.8-3.4
		c-0.5-1-0.3-2.3-0.3-3.5c0-16.7,0-33.4,0-50.2c0-1.1,0.1-2.2,0.2-3.3c0.5-4.1,2.6-6,6.8-6c2,0,4.1,0,6.1,0c4.8,0,7.4,1.8,9.1,6.3
		c3.2,8.6,6.3,17.3,9.5,25.9c1.6,4.3,3.2,8.6,4.8,12.9c0.3,0.7,0.6,1.4,0.9,2.1c0.3,0,0.5-0.1,0.8-0.1c0-0.9,0-1.7,0-2.6
		c0-11.1,0-22.2,0-33.3c0-1.5,0.2-3.1,0.2-4.6c-0.1-6.7,4.5-7.2,9-6.4c3.6,0.6,4.5,1.8,5,5.5c0.1,0.9,0.1,1.9,0.1,2.8
		c0,15.9,0,31.7,0,47.6c0,1.8-0.2,3.6-0.4,5.3c-0.5,3.6-2.6,5.5-6.3,5.7c-2.6,0.1-5.3,0.1-7.9,0c-3.8-0.2-6-2.7-7.3-5.9
		c-2-5.1-3.8-10.2-5.7-15.3c-3-8.1-6-16.1-9-24.2c-0.2-0.6-0.6-1.2-0.9-1.8C562.3,398.5,561.9,398.6,561.7,398.7z"/>
	<path class="st4" d="M525.3,413.9c0.3,0.4,0.4,0.6,0.6,0.7c6.3,3.2,8.6,8.5,8.2,15.4c-0.2,2.9-0.2,5.7,2,8.4
		c1.8,2.3-0.3,6.2-3.4,7.3c-5.6,2-13.8-1-13-8.9c0.3-3.5,0-7.2,0-10.7c0-4.9-3.6-7.7-7.7-7.6c-1.7,0.1-3.4,0-5.5,0c0,1,0,1.8,0,2.6
		c0,5.7,0,11.4-0.1,17.1c-0.1,5.8-3.7,8.6-9.3,7.3c-2.4-0.5-4-2-4.4-4.4c-0.4-1.8-0.6-3.7-0.6-5.6c0-15.7,0-31.4,0-47.1
		c0-1.1,0-2.2,0.2-3.3c0.7-5,2.5-6.7,7.6-6.6c6.9,0.1,13.9-0.3,20.7,0.7c13.4,1.9,20.3,16,13.9,27.4
		C532.3,410.2,529.2,412.4,525.3,413.9z M506.5,398.7c0,2.4-0.1,4.8,0.1,7.1c0,0.6,1,1.7,1.5,1.7c3.1-0.2,6.3-0.4,9.2-1.2
		c3.5-0.9,4.9-3.9,4.9-8.3c-0.1-3.7-1.8-6.4-5.2-7.2c-2.9-0.7-6-0.7-9.1-0.8c-0.4,0-1.3,1-1.3,1.6
		C506.4,393.9,506.5,396.3,506.5,398.7z"/>
	<path class="st3" d="M659.4,412.3c0,4.9,0,9.7,0,14.6c0,4.1,2.2,6.9,5.4,7.3c3.6,0.4,6.4-1.7,7.4-5.6c0.4-1.7,0.6-3.5,0.7-5.3
		c0.1-2.7,1.4-4.1,4-4.4c2.4-0.2,4.9-0.5,7.4-0.4c4.1,0.2,5.8,2.6,5.3,6.8c-1.4,13-9.8,19.2-22.1,20.2c-3.6,0.3-7.4-0.2-10.8-1.1
		c-8-2.1-13-8.2-13.3-16.5c-0.3-10.1-0.3-20.3,0-30.4c0.2-7.6,4.1-13.3,11.1-16.4c8.3-3.7,16.6-3.6,24.7,0.3
		c8.4,4.1,10.8,13.9,10.3,21c-0.2,2.4-1.8,4.1-4.1,4.2c-3.1,0.2-6.3,0-9.3-0.5c-2-0.3-3-1.9-3.1-4.1c-0.1-2.1-0.2-4.3-0.8-6.3
		c-0.9-3.4-3.9-5-7.8-4.4c-3,0.4-4.8,2.8-4.8,6.2C659.4,402.4,659.4,407.4,659.4,412.3z"/>
	<path class="st3" d="M468.1,429.4c-6.7,0-12.9,0-19.4,0c0,2.9,0,5.6,0,8.4c-0.1,6.7-3.6,9.2-10,7.3c-2.3-0.7-3.6-2.5-3.7-5.8
		c-0.1-4.5,0-9,0-13.5c0-5.7,2.2-10.8,4-16.1c2.6-7.5,4.6-15.1,6.9-22.7c2-6.7,4.3-8.5,11.4-8.5c10,0,11.2,0.9,14.1,10.7
		c1.9,6.3,3.7,12.6,5.6,18.8c0.6,2.1,1.6,4,2.3,6.1c3,8.5,2.9,17.2,2.2,26c-0.3,4.3-2.4,5.7-7.2,5.6c-3.8-0.1-5.9-2-6.1-6
		C467.9,436.2,468.1,432.9,468.1,429.4z M458.9,390.9c-0.3,0-0.7,0-1,0.1c-2.3,8.4-4.7,16.9-7,25.5c5.3,0,10.1,0,15.1,0
		C463.6,407.8,461.1,399.3,458.9,390.9z"/>
	<path class="st3" d="M405.6,391.8c0,4.5,0,8.7,0,13.3c2.3,0,4.5-0.1,6.7,0c1.8,0.1,3.6,0.1,5.3,0.5c3.1,0.7,4.6,2.8,4.6,6.1
		c0,3.2-1.6,5.5-4.7,6.1c-2.4,0.5-4.9,0.4-7.4,0.5c-1.4,0.1-2.9,0-4.6,0c0,2.5,0,4.8,0,7s0,4.4,0,6.8c4.1,0,7.9,0,11.7,0
		c1.7,0,3.4,0.1,5.1,0.4c3.9,0.7,5.6,2.7,5.6,6.2s-1.7,5.5-5.4,6.3c-1.2,0.3-2.5,0.4-3.8,0.4c-7.1,0-14.2,0-21.2,0
		c-3.9,0-5.9-1.7-6.7-5.6c-0.2-0.7-0.3-1.5-0.3-2.3c0-17.1-0.1-34.1,0-51.2c0-6.3,2.2-8.1,8.5-8.1c6.4,0,12.8,0,19.2,0
		c1.6,0,3.2,0.1,4.8,0.5c3.4,0.8,4.9,2.8,4.9,6.2c0,3.3-1.7,5.4-5.1,6.1c-1.7,0.4-3.4,0.5-5.1,0.5
		C413.6,391.8,409.8,391.8,405.6,391.8z"/>
	<path class="st5" d="M360.8,431.7c3.5,0,6.7-0.1,9.9,0c1.6,0,3.2,0.2,4.8,0.5c3.4,0.7,5.3,3.2,5.2,6.6c-0.1,3.3-1.9,5.6-5.2,6.3
		c-0.9,0.2-1.8,0.4-2.8,0.4c-6.7,0-13.5,0.1-20.2,0c-5.4-0.1-7.4-2.3-7.4-7.6c0-16.1,0-32.2,0-48.4c0-1.5,0.1-3.1,0.3-4.6
		c0.7-4.7,3-6.6,7.6-6.5c4.2,0.1,6.9,2.5,7.3,6.8c0.3,2.8,0.4,5.6,0.4,8.4c0,11.8,0,23.5,0,35.3
		C360.8,429.9,360.8,430.7,360.8,431.7z"/>
	<path class="st3" d="M630.3,412.3c0,8.8,0.1,17.5-0.1,26.3c-0.1,4.7-2.8,6.9-7.4,7c-4.9,0-7.4-2-7.9-6.7c-0.2-2-0.4-4.1-0.4-6.1
		c0-14.1,0-28.1,0-42.2c0-2,0.2-3.9,0.4-5.8c0.7-4.5,3.3-6.4,8.4-6.3c3.9,0.1,6.8,2.7,6.9,6.8C630.3,394.3,630.3,403.3,630.3,412.3
		L630.3,412.3z"/>
	<path class="st6" d="M199.9,319.8c-1.7,7.5-3.3,14.9-5.1,22.3c-0.1,0.6-0.8,1.3-1.4,1.5c-1.8,0.9-3.8,1.6-6,2.5
		c-0.3-1.9-0.6-3.6-0.9-5.3c-0.5-3.3-0.9-6.6-1.3-9.9c-0.1-0.7,0.2-1.8,0.7-2.1c4.2-2.9,8.4-5.8,12.7-8.6
		C199,319.9,199.5,319.9,199.9,319.8z"/>
	<path class="st7" d="M172.2,336.3c2.7-1.4,5.2-2.7,7.5-3.9c0,5,0.1,9.8-0.1,14.6c0,0.6-0.9,1.3-1.5,1.6c-1,0.5-2.1,0.8-3.3,1.2
		C173.9,345.4,173.1,341,172.2,336.3z"/>
	<path class="st8" d="M178.4,373.9c-0.7-4.3-1.5-8.5-2.1-12.8c-0.1-0.5,0.2-1.4,0.6-1.6c1.8-1.1,3.7-1.9,5.8-3
		c0.2,4,0.5,7.6,0.6,11.3C183.5,372.2,183.2,372.6,178.4,373.9z"/>
	<path class="st7" d="M506.5,398.7c0-2.4-0.1-4.8,0.1-7.1c0-0.6,0.9-1.6,1.3-1.6c3,0.1,6.1,0.2,9.1,0.8c3.4,0.8,5.1,3.5,5.2,7.2
		c0.1,4.4-1.4,7.3-4.9,8.3c-3,0.8-6.1,1-9.2,1.2c-0.5,0-1.4-1-1.5-1.7C506.4,403.4,506.5,401.1,506.5,398.7z"/>
	<path class="st9" d="M458.9,390.9c2.3,8.5,4.7,16.9,7.1,25.5c-5.1,0-9.9,0-15.1,0c2.4-8.6,4.7-17.1,7-25.5
		C458.1,390.9,458.5,390.9,458.9,390.9z"/>
</g>
</svg>
